<svg xmlns="http://www.w3.org/2000/svg" width="1200" height="800" viewBox="0 0 1200 800">
  <defs>
    <linearGradient id="bg" x1="0" y1="0" x2="1" y2="1">
      <stop offset="0" stop-color="#ffd9b0"/>
      <stop offset="1" stop-color="#f2f4f7"/>
    </linearGradient>
    <linearGradient id="vase" x1="0" y1="0" x2="0" y2="1">
      <stop offset="0" stop-color="#90d6c4"/>
      <stop offset="1" stop-color="#4aa28a"/>
    </linearGradient>
  </defs>
  <rect width="1200" height="800" rx="36" fill="url(#bg)"/>
  <rect x="140" y="120" width="920" height="560" rx="32" fill="#ffffff" opacity="0.22"/>

  <g transform="translate(600 470)">
    <path d="M-40 -210c-30 120-10 210 0 260" stroke="#2f8a63" stroke-width="10" stroke-linecap="round" fill="none"/>
    <path d="M20 -220c30 110 10 220 0 270" stroke="#2f8a63" stroke-width="10" stroke-linecap="round" fill="none"/>

    <g transform="translate(-110 -260)">
      <circle cx="0" cy="0" r="44" fill="#ff4d7a" opacity="0.9"/>
      <circle cx="-38" cy="-8" r="28" fill="#ff87a2" opacity="0.85"/>
      <circle cx="40" cy="-10" r="28" fill="#ff87a2" opacity="0.85"/>
      <circle cx="0" cy="36" r="26" fill="#ff87a2" opacity="0.85"/>
      <circle cx="0" cy="0" r="12" fill="#ffd1dc"/>
    </g>

    <g transform="translate(130 -270)">
      <circle cx="0" cy="0" r="44" fill="#ff4d7a" opacity="0.9"/>
      <circle cx="-38" cy="-8" r="28" fill="#ff87a2" opacity="0.85"/>
      <circle cx="40" cy="-10" r="28" fill="#ff87a2" opacity="0.85"/>
      <circle cx="0" cy="36" r="26" fill="#ff87a2" opacity="0.85"/>
      <circle cx="0" cy="0" r="12" fill="#ffd1dc"/>
    </g>

    <g transform="translate(0 0)">
      <path d="M-80 10c15 60 45 120 80 170" stroke="#2f8a63" stroke-width="10" stroke-linecap="round" fill="none" opacity="0.7"/>
      <path d="M80 10c-15 60-45 120-80 170" stroke="#2f8a63" stroke-width="10" stroke-linecap="round" fill="none" opacity="0.7"/>
      <path d="M-110 180h220c0 60-45 108-110 108S-110 240-110 180z" fill="url(#vase)"/>
      <rect x="-120" y="160" width="240" height="30" rx="15" fill="#3e8f79" opacity="0.65"/>
    </g>

    <g opacity="0.18">
      <rect x="-360" y="280" width="720" height="22" rx="11" fill="#111827"/>
    </g>
  </g>
</svg>
